<svg width="89" height="26" viewBox="0 0 89 26" fill="none" xmlns="http://www.w3.org/2000/svg">
<g clip-path="url(#clip0_823_232)">
<path d="M3.95704 19.5916H10.6059L13.913 25.3671H21.8271L25.7841 18.4579L22.477 12.6824L25.7841 6.90691L21.8271 0H13.913L10.6059 5.7755H3.95704L0 12.6847L3.95704 19.594V19.5916ZM23.2283 6.90923L20.5688 11.551H15.176L12.5141 6.90226L15.1898 2.23028H20.548L23.2283 6.90923V6.90923ZM12.5141 18.4672L15.176 13.8185H20.5688L23.2283 18.4602L20.548 23.1392H15.1898L12.5141 18.4672V18.4672ZM5.2338 17.3637L2.55352 12.6847L5.2338 8.00579H10.5851L13.2654 12.6847L10.5851 17.3637H5.2338V17.3637Z" fill="#211C1C"/>
<path d="M34.5044 19.8652H34.8224V22.9017H34.5044V19.8652V19.8652Z" fill="#211C1C"/>
<path d="M41.3331 19.8652V22.9017H41.0703L39.1344 20.4367V22.9017H38.8164V19.8652H39.0791L41.0196 22.3302V19.8652H41.3331V19.8652Z" fill="#211C1C"/>
<path d="M45.0591 21.3848C45.0591 20.495 45.7297 19.8398 46.6377 19.8398C47.0756 19.8398 47.472 19.9862 47.7394 20.2813L47.5366 20.4857C47.2923 20.2348 46.9904 20.1256 46.647 20.1256C45.9187 20.1256 45.3725 20.6646 45.3725 21.3825C45.3725 22.1003 45.9187 22.6393 46.647 22.6393C46.9904 22.6393 47.2923 22.5301 47.5366 22.2746L47.7394 22.479C47.472 22.7741 47.0756 22.9251 46.6331 22.9251C45.7297 22.9251 45.0591 22.2699 45.0591 21.3801V21.3848Z" fill="#211C1C"/>
<path d="M51.3973 21.6053V19.8652H51.7154V21.5914C51.7154 22.3116 52.0518 22.6415 52.6372 22.6415C53.2226 22.6415 53.5614 22.3116 53.5614 21.5914V19.8652H53.8702V21.6053C53.8702 22.4765 53.4047 22.9272 52.6349 22.9272C51.8652 22.9272 51.395 22.4765 51.395 21.6053H51.3973Z" fill="#211C1C"/>
<path d="M60.3619 22.0909C60.3619 22.6066 59.9839 22.9017 59.2303 22.9017H57.8452V19.8652H59.145C59.8157 19.8652 60.2028 20.151 60.2028 20.6458C60.2028 20.992 60.0185 21.222 59.7419 21.3358C60.1291 21.4218 60.3619 21.6773 60.3619 22.0909V22.0909ZM58.1633 20.1301V21.2313H59.122C59.6036 21.2313 59.8848 21.0454 59.8848 20.6807C59.8848 20.3159 59.606 20.1301 59.122 20.1301H58.1633V20.1301ZM60.0438 22.0653C60.0438 21.6704 59.7557 21.4961 59.2257 21.4961H58.1633V22.6368H59.2257C59.7557 22.6368 60.0438 22.4626 60.0438 22.0653Z" fill="#211C1C"/>
<path d="M65.9901 22.0909H64.3123L63.9505 22.9017H63.6187L64.9945 19.8652H65.3079L66.6838 22.9017H66.3473L65.9855 22.0909H65.9901ZM65.8749 21.8307L65.1512 20.1998L64.4276 21.8307H65.8726H65.8749Z" fill="#211C1C"/>
<path d="M70.6345 20.1437H69.5767V19.8672H72.0127V20.1437H70.9548V22.9013H70.6368V20.1437H70.6345Z" fill="#211C1C"/>
<path d="M75.5288 19.8652H75.8468V22.9017H75.5288V19.8652V19.8652Z" fill="#211C1C"/>
<path d="M79.5762 21.3848C79.5762 20.4996 80.2468 19.8398 81.1594 19.8398C82.0721 19.8398 82.7381 20.495 82.7381 21.3848C82.7381 22.2746 82.0629 22.9297 81.1594 22.9297C80.256 22.9297 79.5762 22.2699 79.5762 21.3848ZM82.4201 21.3848C82.4201 20.6599 81.8831 20.1279 81.1594 20.1279C80.4358 20.1279 79.8896 20.6623 79.8896 21.3848C79.8896 22.1073 80.4312 22.6416 81.1594 22.6416C81.8877 22.6416 82.4201 22.1073 82.4201 21.3848Z" fill="#211C1C"/>
<path d="M88.9815 19.8652V22.9017H88.7188L86.7829 20.4367V22.9017H86.4648V19.8652H86.7276L88.6681 22.3302V19.8652H88.9815V19.8652Z" fill="#211C1C"/>
<path d="M36.5254 2.44629V14.2064H34.4858V2.44629H36.5254Z" fill="#211C1C"/>
<path d="M44.2871 5.00879C47.38 5.00879 48.8849 6.48868 48.8849 9.03259V14.2064H47.0366V9.03259C47.0366 7.58755 46.2069 6.78605 44.2895 6.78605H41.3004C41.1459 6.78605 41.0768 6.87201 41.0768 7.04625V14.2064H39.2446V6.43756C39.2446 5.35727 39.6065 5.00879 40.5237 5.00879H44.2918H44.2871Z" fill="#211C1C"/>
<path d="M53.6026 2.44629V7.23908H59.5646V2.44629H61.6204V14.2064H59.5646V9.29279H53.6026V14.2064H51.563V2.44629H53.6026V2.44629Z" fill="#211C1C"/>
<path d="M85.923 5.00916C88.0824 5.00916 88.9997 6.0546 88.9997 7.83186C88.9997 9.60912 88.1539 10.4803 85.9069 10.4803H81.5696V11.1424C81.5696 11.8742 81.966 12.4132 82.9685 12.4132H88.5503V14.2068H82.9685C80.6869 14.2068 79.7881 12.9174 79.7881 11.175V8.03863C79.7881 6.29622 80.6869 5.00684 82.9685 5.00684H85.923V5.00916ZM81.5673 9.03296H85.8539C86.8379 9.03296 87.2021 8.61478 87.2021 7.93641C87.2021 7.25803 86.8057 6.78642 85.9069 6.78642H82.9685C81.966 6.78642 81.5696 7.34399 81.5696 8.05721V9.03296H81.5673Z" fill="#211C1C"/>
<path d="M73.1277 11.7367C73.1784 11.8737 73.2637 12.0991 73.3674 12.0991C73.4711 12.0991 73.5563 11.8737 73.607 11.7367L76.1421 4.94824H78.2163L74.7547 13.3954C74.4298 14.2062 73.8813 14.2062 73.3674 14.2062C72.8534 14.2062 72.3049 14.2062 71.9615 13.3954L68.5 4.94824H70.5742L73.1277 11.7367V11.7367Z" fill="#211C1C"/>
<path d="M66.1681 5.8457H64.3359V14.2093H66.1681V5.8457Z" fill="#211C1C"/>
<path d="M66.1842 2.43945H64.3359V4.52105H66.1842V2.43945Z" fill="#211C1C"/>
</g>
<defs>
<clipPath id="clip0_823_232">
<rect width="89" height="25.3671" fill="white"/>
</clipPath>
</defs>
</svg>
