<svg>
    <symbol id="logo" viewBox="0 0 88 27" fill="none" xmlns="http://www.w3.org/2000/svg">
        <g clip-path="url(#clip0_20_199)">
            <path fill-rule="evenodd" clip-rule="evenodd" d="M16.2946 7.69069L17.2267 8.62903L15.5592 10.3213L14.6201 9.37604L16.2946 7.69069ZM13.4277 10.5763L14.3678 11.5303L12.6934 13.2294L11.7465 12.2685L13.4277 10.5763ZM9.93157 10.4267L11.6128 8.73449L7.69501 4.75877C8.13682 4.41038 8.6063 4.09595 9.09963 3.81938L12.7978 7.54174L14.4721 5.8564L11.4764 2.84105C12.3873 2.58932 13.3465 2.45488 14.3369 2.45488C15.4454 2.45488 16.5149 2.62332 17.5214 2.93617L7.32544 13.1989H10.6742L19.8398 3.97333C20.2797 4.2367 20.6992 4.53069 21.0958 4.85237L5.99547 20.176C4.47219 18.305 3.55808 15.912 3.55808 13.3042C3.55808 10.6964 4.47218 8.30348 5.99546 6.43237L9.93157 10.4267ZM7.57074 2.28048C7.09667 2.5759 6.64309 2.90143 6.21261 3.25443L3.34875 0.348206H0L4.51496 4.92996C2.61253 7.18831 1.46511 10.1114 1.46511 13.3042C1.46511 16.497 2.61254 19.4202 4.51498 21.6784L3.41797e-05 26.2602H3.34878L6.21262 23.3539C6.6431 23.707 7.0967 24.0326 7.57077 24.3279L5.65106 26.2602H8.99981L9.8161 25.4385C11.2226 25.9697 12.746 26.2602 14.3369 26.2602C16.0419 26.2602 17.6696 25.9265 19.1589 25.3205L20.0925 26.2602H23.4413L21.3589 24.1643C21.7827 23.886 22.1891 23.5836 22.5763 23.2584L25.5342 26.2602H28.883L24.2546 21.5634C26.0997 19.3212 27.2086 16.4431 27.2086 13.3042C27.2086 10.1654 26.0997 7.28722 24.2547 5.04506L28.883 0.348206H25.5342L22.5763 3.34996C22.1891 3.02492 21.7827 2.72233 21.3589 2.44418L23.4413 0.348215H20.0925L19.1589 1.28798C17.6696 0.681913 16.0419 0.348206 14.3369 0.348206C12.746 0.348206 11.2226 0.638693 9.81606 1.16984L8.99978 0.348215H5.65102L7.57074 2.28048ZM16.2946 19.0667L19.8397 22.6352C20.2795 22.3717 20.6992 22.0778 21.0958 21.756L17.3744 17.9796L19.0557 16.2875L22.7722 20.0591C24.239 18.2056 25.1157 15.858 25.1157 13.3042C25.1157 10.7505 24.239 8.40278 22.7723 6.5494L7.69502 21.8496C8.13683 22.1981 8.60634 22.5125 9.09966 22.789L18.4182 13.4096H21.7669L11.4764 23.7673C12.3874 24.0191 13.3465 24.1535 14.3369 24.1535C15.4454 24.1535 16.5149 23.9851 17.5214 23.6723L14.6201 20.7521L16.2946 19.0667ZM14.5152 15.0781L16.1896 13.379L17.2408 14.4457L15.5595 16.1379L14.5152 15.0781ZM14.4721 17.2324L13.428 16.1814L11.7605 17.8737L12.7978 18.9177L14.4721 17.2324ZM9.93125 16.0325L11.5988 14.3402L10.6741 13.4096H7.32539L9.93125 16.0325ZM17.3885 12.1624L19.056 10.4702L21.7669 13.1989H18.4181L17.3885 12.1624ZM34.3622 18.7862L39.0331 12.9795L39.5728 12.5487V12.2303L39.0331 11.7433L34.511 6.91065V6.66714H36.7256L40.8941 11.2001L41.1733 11.7433H41.5454L41.8245 11.2001L45.9 6.66714H48.1331V6.91065L43.6669 11.7433L43.1458 12.2115V12.5674L43.6669 12.9795L48.4309 18.7862V19.0297H46.179L41.9734 13.8973L41.6013 13.2605H41.1174L40.7453 13.8973L36.6139 19.0297H34.3622V18.7862ZM51.1219 3.68892V3.65146L52.8526 1.96565H52.8898L54.6019 3.61398V3.65146L52.8526 5.31852H52.8154L51.1219 3.68892ZM52.927 9.57047L53.0014 8.46533L52.8898 8.33422H49.9867V6.66714H55.0112L55.0485 19.0483H52.9642L52.927 9.57047ZM57.6325 15.4707L69.0586 8.37168V8.16564L67.3651 8.4466H57.6883V6.66714H69.2075V10.2261L57.7814 17.3438V17.55L59.6795 17.2314H69.9706V19.011L57.6325 19.0297V15.4707ZM79.1738 19.1794C78.355 19.1794 77.6541 19.1232 77.0709 19.011C76.5003 18.8986 76.0288 18.705 75.6566 18.4302C75.2845 18.1555 75.0115 17.7809 74.8378 17.3065C74.6642 16.8319 74.5773 16.2325 74.5773 15.5082V9.45807L74.6704 8.33422L74.5214 8.12818L73.5538 8.25929H71.116V6.66714H73.5538L74.5214 6.79827L74.6704 6.59223L74.5773 4.06353L76.587 4.0448L76.4941 6.59223L76.6429 6.77954L77.8525 6.66714H82.8957V8.25929H77.8525L76.6429 8.14691L76.4941 8.33422L76.587 9.45807V15.3209C76.587 15.7455 76.6181 16.1014 76.6802 16.3886C76.7546 16.6632 76.8848 16.8818 77.0709 17.0441C77.2694 17.194 77.5486 17.3002 77.9083 17.3627C78.2682 17.425 78.7334 17.4562 79.304 17.4562C80.6192 17.4562 81.7791 17.244 82.784 16.8195L82.8771 16.913V18.4489C82.3933 18.6987 81.8474 18.886 81.2394 19.011C80.644 19.1232 79.9554 19.1794 79.1738 19.1794ZM84.7 6.14588H84.9842V4.15273H85.5854V3.90284H84.0928V4.15273H84.7V6.14588ZM87.693 3.90284L86.9272 5.00179L86.1614 3.90284H85.9042V6.14588H86.1883V4.42672L86.9152 5.47749H86.939L87.6659 4.43877V6.14588H87.9501V3.90284H87.693Z" fill="#0F0F0F"/>
        </g>
        <defs>
            <clipPath id="clip0_20_199">
                <rect width="88" height="25.9286" fill="white" transform="translate(0 0.348206)"/>
            </clipPath>
        </defs>
    </symbol>

    <symbol id="arrow-right" viewBox="0 0 20 20"  xmlns="http://www.w3.org/2000/svg">
        <path d="M9.08789 3.16405V4.74609C9.08789 4.83593 9.12695 4.92187 9.19531 4.98241L14.123 9.2578L3.125 9.2578C3.03906 9.2578 2.96875 9.32812 2.96875 9.41405V10.5859C2.96875 10.6719 3.03906 10.7422 3.125 10.7422L14.123 10.7422L9.19531 15.0176C9.12695 15.0762 9.08789 15.1621 9.08789 15.2539V16.8359C9.08789 16.9687 9.24609 17.041 9.3457 16.9531L16.8164 10.4707C16.884 10.4121 16.9382 10.3397 16.9754 10.2583C17.0125 10.1769 17.0318 10.0885 17.0318 9.99901C17.0318 9.90955 17.0125 9.82114 16.9754 9.73976C16.9382 9.65838 16.884 9.58593 16.8164 9.52734L9.3457 3.04687C9.24414 2.95898 9.08789 3.03124 9.08789 3.16405Z" />
    </symbol>

    <symbol id="arrow-down" viewBox="0 0 17 17" fill="none" xmlns="http://www.w3.org/2000/svg">
        <path d="M12.7994 10.2213L8.49978 14.5209L4.2002 10.2213" stroke-width="1.5" stroke-miterlimit="10" stroke-linecap="round" stroke-linejoin="round"/>
        <path d="M8.5 2.47913V14.4004" stroke-width="1.5" stroke-miterlimit="10" stroke-linecap="round" stroke-linejoin="round"/>
    </symbol>

    <symbol id="linkedin" viewBox="0 0 16 16" fill="none" xmlns="http://www.w3.org/2000/svg">
        <g clip-path="url(#clip0_441_1909)">
            <path d="M14.8156 0H1.18125C0.528125 0 0 0.515625 0 1.15313V14.8438C0 15.4813 0.528125 16 1.18125 16H14.8156C15.4688 16 16 15.4813 16 14.8469V1.15313C16 0.515625 15.4688 0 14.8156 0ZM4.74687 13.6344H2.37188V5.99687H4.74687V13.6344ZM3.55938 4.95625C2.79688 4.95625 2.18125 4.34062 2.18125 3.58125C2.18125 2.82188 2.79688 2.20625 3.55938 2.20625C4.31875 2.20625 4.93437 2.82188 4.93437 3.58125C4.93437 4.3375 4.31875 4.95625 3.55938 4.95625ZM13.6344 13.6344H11.2625V9.92188C11.2625 9.0375 11.2469 7.89687 10.0281 7.89687C8.79375 7.89687 8.60625 8.8625 8.60625 9.85938V13.6344H6.2375V5.99687H8.5125V7.04063H8.54375C8.85938 6.44063 9.63438 5.80625 10.7875 5.80625C13.1906 5.80625 13.6344 7.3875 13.6344 9.44375V13.6344Z" fill="#0F0F0F"/>
        </g>
        <defs>
            <clipPath id="clip0_441_1909">
                <rect width="16" height="16" fill="white"/>
            </clipPath>
        </defs>
    </symbol>

    <symbol id="star" viewBox="0 0 20 20" xmlns="http://www.w3.org/2000/svg">
        <path d="M11.7376 1.43604L13.5002 4.96128C13.7378 5.44881 14.3753 5.91135 14.9128 6.01135L18.1006 6.53639C20.1382 6.87391 20.6132 8.34901 19.1506 9.82411L16.663 12.3118C16.2504 12.7243 16.0129 13.5369 16.1504 14.1244L16.863 17.1996C17.4255 19.6248 16.1254 20.5748 13.9878 19.2998L11.0001 17.5246C10.4625 17.1996 9.56247 17.1996 9.02493 17.5246L6.03723 19.2998C3.89958 20.5623 2.59949 19.6248 3.16203 17.1996L3.87458 14.1244C3.98709 13.5244 3.74957 12.7118 3.33705 12.2993L0.849375 9.81161C-0.613225 8.34901 -0.138192 6.87391 1.89945 6.52389L5.08716 5.99885C5.6247 5.91135 6.26224 5.43631 6.49976 4.94878L8.26238 1.42354C9.22495 -0.476591 10.7751 -0.476591 11.7376 1.43604Z" />
    </symbol>
</svg>